# xmcd
#
# Track frame offsets:
#	150
#	17556
#	33354
#	54220
#	74816
#	101241
#	122436
#	138282
#	152316
#	172386
#	207697
#
# Disc length: 2996 seconds
#
# Revision: 14
# Processed by: cddbd v1.5.2PL0 Copyright (c) Steve Scherf et al.
# Submitted via: Jack! The Knife 20 Magnifico
#
DISCID=9a0bb20b
DTITLE=Celtic Frost - Vanity/Nemesis
DYEAR=1990
DGENRE=Metal
TTITLE0=The Heart Beneath
TTITLE1=Wine In My Hand (Third From The Sun)
TTITLE2=Wings Of Solitude
TTITLE3=The Name Of My Bride
TTITLE4=This Island Earth
TTITLE5=The Restless Seas
TTITLE6=Phallic Tantrum
TTITLE7=A Kiss Or A Whisper
TTITLE8=Vanity
TTITLE9=Nemesis
TTITLE10=Heroes
EXTD=Roli Mosimann
EXTT0=Bryant, Priestly, Warrior
EXTT1=Bryant, Priestly, Warrior
EXTT2=Tom Warrior
EXTT3=Bryant, Ain
EXTT4=Brian Ferry
EXTT5=Bryant, Marks, Warrior
EXTT6=Bryant, Warrior
EXTT7=Bryant, Warrior
EXTT8=Bryant, Priestly, Warrior
EXTT9=Bryant, Marks, Warrior
EXTT10=David Bowie
PLAYORDER=
